# xmcd
#
# Track frame offsets:
#	150
#	19466
#	36541
#	52188
#	74124
#	95725
#	109389
#	134448
#	156186
#
# Disc length: 2385 seconds
#
# Revision: 1
# Processed by: cddbd v1.5.2PL0 Copyright (c) Steve Scherf et al.
# Submitted via: audiograbber 1.83.01
#
DISCID=93094f09
DTITLE=Charlie Robison - High Life
DYEAR=2013
DGENRE=Country
TTITLE0=Brand New Me
TTITLE1=Out of These Blues
TTITLE2=Look Out Cleveland
TTITLE3=Monte Carlo
TTITLE4=When I Paint My Masterpiece
TTITLE5=Nuevo Laredo
TTITLE6=The Girls from Texas
TTITLE7=Patty McBride
TTITLE8=Wild Man from Borneo
EXTD=
EXTT0=
EXTT1=
EXTT2=
EXTT3=
EXTT4=
EXTT5=
EXTT6=
EXTT7=
EXTT8=
PLAYORDER=
